STARTFONT 2.1
COMMENT Created by fdbbdf
FONT fig12
SIZE 12 78 78
FONTBOUNDINGBOX 42 47 -10 -32
STARTPROPERTIES 4
Ownership "  "
FONT_ASCENT 15
FONT_DESCENT 32
DEFAULT_CHAR 48
ENDPROPERTIES
CHARS 46
STARTCHAR 0
ENCODING -1 48
SWIDTH 0 0
DWIDTH 32 0
BBX 21 29 4 -30
BITMAP
43800000
c2400000
43b00000
400c0000
40020000
40010000
e0008000
00004000
00004000
00002000
00002000
000c1000
00121000
00022800
00042800
00082800
00101000
001e1000
00002000
00002000
00004000
00004000
60008000
90010000
10020000
600c0000
13b00000
92400000
63800000
ENDCHAR
STARTCHAR 1
ENCODING -1 49
SWIDTH 0 0
DWIDTH 32 0
BBX 11 26 10 -29
BITMAP
0400
0400
0400
0e00
0e00
0e00
1500
1500
1500
2480
2480
2480
4440
4440
4440
8420
8420
8420
0400
0400
0400
0400
0400
0400
0400
0400
ENDCHAR
STARTCHAR 2
ENCODING -1 50
SWIDTH 0 0
DWIDTH 32 0
BBX 26 8 3 -19
BITMAP
000f0000
00f00000
0f000000
ffffffc0
ffffffc0
0f000000
00f00000
000f0000
ENDCHAR
STARTCHAR 3
ENCODING -1 51
SWIDTH 0 0
DWIDTH 32 0
BBX 22 17 5 -24
BITMAP
fffffc00
80000400
80000400
80000400
80000400
80000400
80000400
80000400
80000400
80000400
80000400
80000400
80000400
80000400
80000400
80000400
fffffc00
ENDCHAR
STARTCHAR 4
ENCODING -1 52
SWIDTH 0 0
DWIDTH 32 0
BBX 27 27 3 -29
BITMAP
003f8000
00c06000
03001800
04000400
08000200
10000100
20000080
20000080
40000040
40000040
80000020
80000020
80040020
800fffe0
80040020
80000020
80000020
40000040
40000040
20000080
20000080
10000100
08000200
04000400
03001800
00c06000
003f8000
ENDCHAR
STARTCHAR 5
ENCODING -1 53
SWIDTH 0 0
DWIDTH 32 0
BBX 27 27 3 -29
BITMAP
003f8000
00c06000
03001800
04000400
08000200
10000100
20000080
20000080
40000040
40000040
80000020
80000020
80040020
ffffffe0
80040020
80000020
80000020
40000040
40000040
20000080
20000080
10000100
08000200
04000400
03001800
00c06000
003f8000
ENDCHAR
STARTCHAR 6
ENCODING -1 54
SWIDTH 0 0
DWIDTH 32 0
BBX 27 27 2 -30
BITMAP
ffffffe0
ffffffe0
c0000060
c0007060
c0018c60
c3c20260
c4320260
c8020260
c8018c60
c4007060
c3c00060
c0300860
c0080460
c0080260
d0080160
c813f960
c7e04160
c0004160
c0004160
cff04260
c8104460
c8104860
c8104060
cff00060
c0000060
ffffffe0
ffffffe0
ENDCHAR
STARTCHAR 7
ENCODING -1 55
SWIDTH 0 0
DWIDTH 32 0
BBX 27 27 2 -30
BITMAP
aaaaaaa0
00000000
80000020
00007000
80018c20
03c20200
84320220
08020200
88018c20
04007000
83c00020
00300800
80080420
00080200
90080120
0813f900
87e04120
00004100
80004120
0ff04200
88104420
08104800
88104020
0ff00000
80000020
00000000
aaaaaaa0
ENDCHAR
STARTCHAR 8
ENCODING -1 56
SWIDTH 0 0
DWIDTH 32 0
BBX 27 27 2 -30
BITMAP
abffffe0
57ffffe0
83000060
43007860
83018660
43c20160
87320160
4b020160
8b018660
47007860
83e00060
43100860
83080460
43080260
93080160
4b13f960
87e04160
43004160
83004160
4fffffe0
8bffffe0
48104840
88104020
4ff00040
80000020
55555540
aaaaaaa0
ENDCHAR
STARTCHAR 9
ENCODING -1 57
SWIDTH 0 0
DWIDTH 32 0
BBX 7 25 11 -28
BITMAP
0600
0800
1800
1800
1800
1800
1800
1800
1800
1800
1000
2000
c000
2000
1000
1800
1800
1800
1800
1800
1800
1800
1800
0800
0600
ENDCHAR
STARTCHAR :
ENCODING -1 58
SWIDTH 0 0
DWIDTH 32 0
BBX 7 25 12 -28
BITMAP
c000
2000
3000
3000
3000
3000
3000
3000
3000
3000
1000
0800
0600
0800
1000
3000
3000
3000
3000
3000
3000
3000
3000
2000
c000
ENDCHAR
STARTCHAR ;
ENCODING -1 59
SWIDTH 0 0
DWIDTH 32 0
BBX 28 17 1 -22
BITMAP
1c000380
3e0007c0
63000c60
c3001860
c3001860
c3001860
c1811830
c1819830
c1bfd830
c1819830
c1811830
c3001860
c3001860
63000c60
33000660
1e0003c0
0c000180
ENDCHAR
STARTCHAR <
ENCODING -1 60
SWIDTH 0 0
DWIDTH 32 0
BBX 27 19 3 -25
BITMAP
003f8000
01c47000
06040c00
08040200
10040100
20040080
40040040
40040040
80040020
800fffe0
80040020
40000040
40000040
20000080
10000100
08000200
06000c00
01c07000
003f8000
ENDCHAR
STARTCHAR =
ENCODING -1 61
SWIDTH 0 0
DWIDTH 32 0
BBX 27 19 3 -25
BITMAP
003f8000
01c47000
06040c00
08040200
10040100
20040080
40040040
40040040
80040020
ffffffe0
80040020
40040040
40040040
20040080
10040100
08040200
06040c00
01c47000
003f8000
ENDCHAR
STARTCHAR >
ENCODING -1 62
SWIDTH 0 0
DWIDTH 32 0
BBX 28 29 2 -30
BITMAP
00040000
000a0000
000a0000
00110000
00110000
00208000
00208000
00404000
00404000
00802000
00fbe000
000e0000
001b0000
002a8000
d2aeb490
002a8000
001b0000
000e0000
00fbe000
00802000
00404000
00404000
00208000
00208000
00110000
00110000
000a0000
000a0000
00040000
ENDCHAR
STARTCHAR ?
ENCODING -1 63
SWIDTH 0 0
DWIDTH 32 0
BBX 29 26 1 -29
BITMAP
03800e00
04401100
08202080
08202080
08202080
04401100
02870a00
02888a00
1c7ff1c0
20124020
4c3fe090
94489148
a4471128
c8202098
08202080
10104040
10104040
20088020
3d78f5e0
05401500
05401500
05401500
05401500
05401500
05401500
07c01f00
ENDCHAR
STARTCHAR @
ENCODING -1 64
SWIDTH 0 0
DWIDTH 32 0
BBX 26 8 3 -19
BITMAP
003c0000
0003c000
00003c00
ffffffc0
ffffffc0
00003c00
0003c000
003c0000
ENDCHAR
STARTCHAR A
ENCODING -1 65
SWIDTH 0 0
DWIDTH 32 0
BBX 32 32 0 -32
BITMAP
10410410
10410410
10410410
10410410
ffffffff
10410410
10410410
10410410
10410410
10410410
ffffffff
10410410
10410410
10410410
10410410
10410410
ffffffff
10410410
10410410
10410410
10410410
10410410
ffffffff
10410410
10410410
10410410
10410410
10410410
ffffffff
10410410
10410410
10410410
ENDCHAR
STARTCHAR B
ENCODING -1 66
SWIDTH 0 0
DWIDTH 32 0
BBX 32 32 0 -32
BITMAP
10010010
10010010
10010010
10010010
ffffffff
10010010
10010010
10010010
10010010
10010010
10010010
10010010
10010010
10010010
10010010
10010010
ffffffff
10010010
10010010
10010010
10010010
10010010
10010010
10010010
10010010
10010010
10010010
10010010
ffffffff
10010010
10010010
10010010
ENDCHAR
STARTCHAR C
ENCODING -1 67
SWIDTH 0 0
DWIDTH 32 0
BBX 26 24 3 -28
BITMAP
01000400
01800600
02400600
02400500
04200500
04200500
08100480
08100880
10080880
10080840
20040840
20040840
40080800
40101000
80201000
80401000
00801000
01001000
02001000
06002000
01804000
00608000
00190000
00060000
ENDCHAR
STARTCHAR D
ENCODING -1 68
SWIDTH 0 0
DWIDTH 32 0
BBX 27 1 2 -16
BITMAP
ffffffe0
ENDCHAR
STARTCHAR E
ENCODING -1 69
SWIDTH 0 0
DWIDTH 32 0
BBX 28 1 2 -16
BITMAP
f0f0f0f0
ENDCHAR
STARTCHAR F
ENCODING -1 70
SWIDTH 0 0
DWIDTH 32 0
BBX 32 24 0 -29
BITMAP
001f8000
001f8000
00198000
00198000
0019800f
0039c00f
0039c00c
0030c00c
0030c00c
0030c00c
3e30cf8c
3e30cf8c
3630cd8c
3630fd8c
3630fd8c
37f0018c
37f0018c
300001fc
300001fc
f0000000
f0000000
00000000
00000000
ffffffff
ENDCHAR
STARTCHAR G
ENCODING -1 71
SWIDTH 0 0
DWIDTH 32 0
BBX 32 21 0 -30
BITMAP
0c000000
1e000000
33000000
61800000
c0c00000
80600000
00300000
00180018
000c003c
00060066
000300c3
00018180
0000c300
00006600
00003c00
00001800
00000000
00000000
00000000
00000000
ffffffff
ENDCHAR
STARTCHAR H
ENCODING -1 72
SWIDTH 0 0
DWIDTH 32 0
BBX 27 17 2 -22
BITMAP
00000700
28000f80
400018c0
840030c0
000030c0
840030c0
02023060
80033060
027fb060
80033060
02023060
800030c0
040030c0
400018c0
24000cc0
08000780
00000300
ENDCHAR
STARTCHAR I
ENCODING -1 73
SWIDTH 0 0
DWIDTH 32 0
BBX 26 27 2 -29
BITMAP
00080000
00040fc0
00020fc0
0fff0cc0
80020fc0
00040fc0
20081b00
80003300
08006300
0000c300
82018300
00030300
00860300
800c0300
00380300
00300300
80680300
00c00300
01820300
83000300
06008300
0c000300
98002300
30000300
60000b00
c0000300
00000300
ENDCHAR
STARTCHAR J
ENCODING -1 74
SWIDTH 0 0
DWIDTH 32 0
BBX 20 26 6 -29
BITMAP
fffe0000
80010000
80008000
80004000
80002000
80001000
80001000
80001000
80001000
80001000
80002000
80004000
80008000
80010000
80fe0000
80800000
80800000
80800000
80800000
80800000
80800000
80800000
80800000
80800000
80800000
ff800000
ENDCHAR
STARTCHAR K
ENCODING -1 75
SWIDTH 0 0
DWIDTH 32 0
BBX 29 27 3 -28
BITMAP
00001000
00422000
00004000
01088020
00010040
04220080
00040108
10880200
00040420
84220800
80011080
8108a000
80004200
80000000
80000000
80002000
80001800
40000400
40000400
40000200
20000200
10000200
0c000600
02000400
01001800
00f0e000
001f0000
ENDCHAR
STARTCHAR L
ENCODING -1 76
SWIDTH 0 0
DWIDTH 32 0
BBX 23 27 7 -31
BITMAP
01800000
00600000
1ff80000
10600000
11800000
10000000
10000000
10000000
10000000
10000000
10000000
10000000
10000000
10000000
38000000
54000000
92000000
9ffff800
82000800
44000800
38000800
00002a00
00002a00
00001c00
00001c00
00000800
00000800
ENDCHAR
STARTCHAR M
ENCODING -1 77
SWIDTH 0 0
DWIDTH 32 0
BBX 29 21 1 -25
BITMAP
0c000000
30000000
ffc00000
30400000
0c400000
00400000
00400000
00400000
00400020
00400020
00400070
00400070
004000a8
004000a8
00e00020
01500020
02480020
027fffe0
02080000
01100000
00e00000
ENDCHAR
STARTCHAR N
ENCODING -1 78
SWIDTH 0 0
DWIDTH 32 0
BBX 25 24 2 -27
BITMAP
00ff0000
0700e000
08001000
10000000
10000000
10000000
10000000
08000000
07800000
007fc000
00003c00
00000200
00000100
00000080
00000080
00000080
00000080
80000080
80000100
40000200
40000400
20001800
1c01e000
03fe0000
ENDCHAR
STARTCHAR O
ENCODING -1 79
SWIDTH 0 0
DWIDTH 32 0
BBX 22 23 5 -27
BITMAP
fffffc00
e0fc1c00
c0780c00
80780400
00780000
00780000
00780000
00780000
00780000
00780000
00780000
00780000
00780000
00780000
00780000
00780000
00780000
00780000
00780000
00780000
00780000
00fc0000
03ff0000
ENDCHAR
STARTCHAR P
ENCODING -1 80
SWIDTH 0 0
DWIDTH 5 0
BBX 5 5 0 -5
BITMAP
f800
f800
f800
f800
f800
ENDCHAR
STARTCHAR Q
ENCODING -1 81
SWIDTH 0 0
DWIDTH 15 0
BBX 15 8 -7 2
BITMAP
fffe
7ffc
3ff8
1ff0
0fe0
07c0
0380
0100
ENDCHAR
STARTCHAR R
ENCODING -1 82
SWIDTH 0 0
DWIDTH 8 0
BBX 8 15 2 -8
BITMAP
0100
0300
0700
0f00
1f00
3f00
7f00
ff00
7f00
3f00
1f00
0f00
0700
0300
0100
ENDCHAR
STARTCHAR S
ENCODING -1 83
SWIDTH 0 0
DWIDTH 8 0
BBX 8 15 -10 -8
BITMAP
8000
c000
e000
f000
f800
fc00
fe00
ff00
fe00
fc00
f800
f000
e000
c000
8000
ENDCHAR
STARTCHAR a
ENCODING -1 97
SWIDTH 0 0
DWIDTH 0 0
BBX 15 15 -7 -8
BITMAP
0100
0100
0100
0100
0100
0100
0100
fffe
0100
0100
0100
0100
0100
0100
0100
ENDCHAR
STARTCHAR b
ENCODING -1 98
SWIDTH 0 0
DWIDTH 0 0
BBX 9 15 -7 -10
BITMAP
e380
1400
0800
0800
0800
0800
0800
1c00
0800
0800
0800
0800
0800
1400
e380
ENDCHAR
STARTCHAR c
ENCODING -1 99
SWIDTH 0 0
DWIDTH 0 0
BBX 15 15 -7 -8
BITMAP
0fe0
1010
2008
4004
8002
8002
8002
8002
8002
8002
8002
4004
2008
1010
0fe0
ENDCHAR
STARTCHAR d
ENCODING -1 100
SWIDTH 0 0
DWIDTH 0 0
BBX 15 15 -7 -8
BITMAP
0fe0
1010
2008
5004
8802
8402
8202
8102
8082
8042
8022
4014
2008
1010
0fe0
ENDCHAR
STARTCHAR e
ENCODING -1 101
SWIDTH 0 0
DWIDTH 0 0
BBX 7 7 -3 -4
BITMAP
3800
4400
8200
8200
8200
4400
3800
ENDCHAR
STARTCHAR f
ENCODING -1 102
SWIDTH 0 0
DWIDTH 0 0
BBX 8 17 0 -17
BITMAP
8000
c000
e000
f000
f800
fc00
f000
b000
1800
1800
0c00
0c00
0600
0600
0300
0300
0100
ENDCHAR
STARTCHAR g
ENCODING -1 103
SWIDTH 0 0
DWIDTH 0 0
BBX 16 16 0 -1
BITMAP
0020
0040
0780
08c0
0520
0391
0e8a
124c
1134
08e2
1462
1221
2701
5900
6080
8040
ENDCHAR
STARTCHAR h
ENCODING -1 104
SWIDTH 0 0
DWIDTH 0 0
BBX 8 17 0 -17
BITMAP
8000
c000
a000
9000
8800
8c00
d000
b000
1800
1800
0c00
0c00
0600
0600
0300
0300
0100
ENDCHAR
STARTCHAR i
ENCODING -1 105
SWIDTH 0 0
DWIDTH 0 0
BBX 11 15 -7 -10
BITMAP
ffe0
4040
4040
3f80
3f80
1f00
0e00
0400
0a00
1100
2080
2080
4040
4040
ffe0
ENDCHAR
STARTCHAR j
ENCODING -1 106
SWIDTH 0 0
DWIDTH 0 0
BBX 16 16 0 -16
BITMAP
0fc0
3020
c718
9884
e042
a021
9021
9020
8c40
4380
3000
0800
0600
0180
007c
0000
ENDCHAR
ENDFONT
